<?xml version="1.0" encoding="utf-8"?>
<svg viewBox="0 0 500 500" width="500" height="500" xmlns="http://www.w3.org/2000/svg">
  <path d="M -113.545 302.754 C -109.813 304.501 -107.361 306.458 -105.016 309.558 C -104.826 311.748 -104.826 311.748 -104.962 314.123 C -104.561 320.868 -99.956 324.334 -94.779 328.745 C -93.78 329.63 -92.783 330.517 -91.787 331.406 C -89.092 333.8 -86.367 336.166 -83.635 338.527 C -80.772 341.011 -77.939 343.52 -75.101 346.027 C -70.333 350.232 -65.548 354.42 -60.748 358.597 C -53.995 364.474 -47.273 370.379 -40.557 376.29 C -31.545 384.221 -22.521 392.142 -13.465 400.035 C -12.49 400.886 -11.515 401.737 -10.541 402.588 C -5.494 407 -0.418 411.345 5.002 415.399 C 7.283 414.41 9.276 413.392 11.289 412.02 C 23.777 403.724 41.574 393.475 57.879 393.475 C 57.879 397.466 57.879 401.458 57.879 405.571 C 56.162 406.039 56.162 406.039 54.412 406.516 C 27.935 413.912 6.22 427.815 -7.094 449.712 C -19.079 470.311 -21.667 494.27 -13.906 516.458 C -9.18 528.704 -2.209 539.579 7.561 549.212 C 8.135 549.783 8.709 550.355 9.3 550.943 C 21.319 562.235 36.996 569.611 53.615 574.16 C 53.663 573.414 53.71 572.667 53.758 571.897 C 53.936 569.101 54.116 566.306 54.297 563.511 C 54.375 562.305 54.452 561.1 54.528 559.895 C 54.638 558.153 54.751 556.411 54.864 554.67 C 54.898 554.138 54.93 553.608 54.964 553.06 C 55.201 549.483 55.653 545.962 56.174 542.408 C 57.575 533.525 57.575 533.525 54.611 525.51 C 52.626 524.418 52.626 524.418 50.487 523.62 C 47.193 522.182 45.713 519.596 44.234 516.704 C 42.472 511.849 42.343 505.871 44.873 501.253 C 45.487 500.342 46.125 499.442 46.792 498.56 C 47.267 497.889 47.742 497.219 48.232 496.528 C 53.207 492.118 58.628 490.364 65.619 490.096 C 71.389 490.437 76.228 492.982 80.417 496.428 C 84.627 500.744 86.713 505.422 86.32 511.128 C 85.368 516.891 82.485 521.198 77.495 525.02 C 74.588 526.521 71.538 528.044 68.113 528.044 C 68.082 528.894 68.05 529.743 68.017 530.619 C 67.464 543.643 66.29 556.622 65.155 569.613 C 64.674 575.158 64.25 580.706 63.849 586.257 C 57.14 587.192 52.138 586.864 45.78 584.791 C 45.008 584.55 44.236 584.309 43.441 584.06 C 31.726 580.291 19.81 575.306 10.497 567.797 C 8.173 565.736 8.173 565.736 5.132 565.134 C 2.472 566.164 0.836 567.722 -1.225 569.529 C -1.67 569.917 -2.116 570.304 -2.575 570.703 C -4.067 572.005 -5.55 573.314 -7.033 574.624 C -8.1 575.558 -9.168 576.492 -10.236 577.425 C -13.137 579.964 -16.03 582.511 -18.92 585.06 C -20.727 586.652 -22.534 588.243 -24.341 589.835 C -29.996 594.812 -35.646 599.796 -41.289 604.786 C -47.802 610.545 -54.333 616.287 -60.881 622.017 C -65.941 626.447 -70.984 630.891 -76.015 635.346 C -79.02 638.007 -82.032 640.66 -85.061 643.3 C -87.91 645.784 -90.739 648.285 -93.554 650.8 C -94.588 651.719 -95.631 652.632 -96.681 653.537 C -102.338 658.118 -102.338 658.118 -105.583 664.045 C -105.627 666.045 -105.627 666.045 -105.264 667.854 C -104.859 670.403 -105.975 671.899 -107.575 673.953 C -110.926 676.696 -113.564 678.351 -118.129 678.725 C -123.695 678.301 -126.978 676.112 -130.602 672.441 C -132.247 668.065 -132.277 663.464 -130.121 659.258 C -127.697 656.998 -125.441 655.242 -122.073 654.297 C -120.711 654.329 -119.35 654.404 -117.993 654.514 C -114.656 654.554 -112.901 654.266 -110.33 652.353 C -109.292 651.452 -108.277 650.53 -107.282 649.593 C -106.718 649.092 -106.154 648.592 -105.572 648.077 C -103.72 646.426 -101.9 644.75 -100.079 643.072 C -98.789 641.914 -97.499 640.757 -96.206 639.602 C -92.811 636.559 -89.441 633.494 -86.077 630.424 C -81.999 626.711 -77.891 623.023 -73.788 619.332 C -70.592 616.456 -67.401 613.576 -64.224 610.685 C -63.635 610.151 -63.046 609.616 -62.439 609.066 C -61.352 608.079 -60.268 607.091 -59.186 606.102 C -56.079 603.285 -52.846 600.663 -49.481 598.09 C -47.236 596.345 -45.138 594.505 -43.029 592.631 C -42.378 592.055 -42.378 592.055 -41.715 591.467 C -40.31 590.221 -38.909 588.973 -37.507 587.724 C -36.522 586.85 -35.538 585.976 -34.553 585.103 C -31.983 582.821 -29.415 580.537 -26.848 578.253 C -24.219 575.916 -21.588 573.58 -18.957 571.245 C -13.811 566.674 -8.667 562.102 -3.526 557.528 C -4.829 555.092 -6.418 553.07 -8.284 550.938 C -22.091 535.044 -31.67 515.066 -31.67 494.78 C -83.456 494.78 -135.241 494.78 -188.596 494.78 C -189.159 496.027 -189.721 497.274 -190.301 498.56 C -191.709 498.56 -193.116 498.56 -194.566 498.56 C -194.12 496.471 -193.62 494.533 -192.86 492.512 C -193.136 488.962 -193.469 485.819 -196.537 483.392 C -198.728 482.715 -200.798 482.219 -203.094 481.927 C -203.094 480.93 -203.094 479.932 -203.094 478.903 C -196.992 478.531 -194.25 479.548 -189.555 483.156 C -188.596 484.196 -188.596 484.196 -188.596 485.708 C -136.81 485.708 -85.025 485.708 -31.67 485.708 C -31.67 483.712 -31.67 481.716 -31.67 479.659 C -29.659 461.093 -20.972 442.796 -7.324 428.64 C -5.02 426.209 -4.379 425.509 -4.379 422.203 C -6.079 420.221 -6.079 420.221 -8.428 418.195 C -9.081 417.603 -9.081 417.603 -9.748 416.999 C -11.215 415.673 -12.694 414.36 -14.172 413.046 C -15.225 412.1 -16.277 411.154 -17.328 410.207 C -20.191 407.633 -23.064 405.069 -25.941 402.508 C -27.739 400.908 -29.533 399.306 -31.328 397.703 C -37.589 392.111 -43.86 386.529 -50.14 380.954 C -55.991 375.758 -61.818 370.54 -67.634 365.313 C -72.63 360.826 -77.642 356.356 -82.669 351.897 C -85.671 349.235 -88.665 346.565 -91.641 343.879 C -94.441 341.351 -97.264 338.843 -100.105 336.351 C -101.143 335.434 -102.172 334.51 -103.193 333.578 C -108.465 328.492 -108.465 328.492 -115.34 325.698 C -117.818 325.669 -117.818 325.669 -120.08 326.002 C -123.612 326.335 -125.289 325.059 -128.043 323.166 C -131.018 320.394 -131.703 318.196 -131.881 314.472 C -131.715 310.754 -130.917 308.601 -128.043 305.778 C -123.253 301.946 -119.677 301.552 -113.545 302.754 Z" fill="#BAEEF5" style="" transform="matrix(0.9999999999999999, 0, 0, 0.9999999999999999, 0, 0)"/>
  <path d="M 489.797 477.769 C 490.904 477.762 492.012 477.754 493.152 477.746 C 496.816 478.222 498.016 478.764 500.511 481.171 C 501.141 483.399 501.107 485.576 501.085 487.864 C 501.095 488.51 501.106 489.156 501.117 489.822 C 501.149 491.885 501.15 493.946 501.151 496.008 C 501.169 498.076 501.194 500.143 501.221 502.21 C 501.236 503.496 501.245 504.781 501.247 506.067 C 501.167 509.218 501.167 509.218 502.217 512.168 C 507.303 512.187 512.388 512.2 517.474 512.209 C 519.206 512.213 520.937 512.218 522.669 512.224 C 525.152 512.234 527.635 512.238 530.118 512.242 C 530.897 512.246 531.677 512.249 532.479 512.253 C 534.332 512.253 536.185 512.215 538.037 512.168 C 539.808 510.598 539.007 507.189 539.009 505.021 C 539.026 503.697 539.042 502.373 539.06 501.049 C 539.084 498.955 539.103 496.862 539.103 494.768 C 539.107 492.751 539.136 490.736 539.17 488.719 C 539.164 488.097 539.158 487.474 539.152 486.832 C 539.229 483.6 539.428 482.29 541.719 479.644 C 544.735 477.671 546.682 477.642 550.403 477.675 C 552.052 477.661 552.052 477.661 553.735 477.645 C 557.66 478.288 558.683 479.097 561.064 481.927 C 561.684 484.526 561.63 487.074 561.589 489.723 C 561.594 490.506 561.598 491.289 561.603 492.097 C 561.613 494.684 561.592 497.271 561.571 499.859 C 561.569 501.659 561.569 503.457 561.571 505.256 C 561.569 509.027 561.553 512.796 561.526 516.566 C 561.492 521.399 561.489 526.231 561.495 531.064 C 561.497 534.779 561.487 538.494 561.473 542.209 C 561.467 543.991 561.464 545.773 561.465 547.555 C 561.463 550.045 561.445 552.536 561.422 555.025 C 561.425 555.762 561.427 556.499 561.43 557.258 C 561.371 561.358 561.093 564.306 557.653 567.356 C 555.26 567.473 552.903 567.532 550.51 567.545 C 549.844 567.561 549.178 567.576 548.491 567.593 C 543.534 567.622 543.534 567.622 541.716 566.349 C 539.103 563.41 539.57 559.896 539.503 556.341 C 539.487 555.709 539.472 555.076 539.455 554.424 C 539.388 551.715 539.33 549.007 539.272 546.299 C 539.228 544.322 539.179 542.346 539.13 540.371 C 539.119 539.753 539.107 539.135 539.095 538.5 C 539.323 535.686 539.323 535.686 538.037 533.336 C 535.483 533.26 532.949 533.23 530.395 533.235 C 529.625 533.235 528.857 533.234 528.065 533.233 C 526.434 533.233 524.804 533.234 523.174 533.238 C 520.676 533.242 518.18 533.238 515.683 533.232 C 514.102 533.233 512.521 533.234 510.938 533.235 C 510.19 533.234 509.441 533.232 508.669 533.231 C 507.972 533.233 507.275 533.235 506.557 533.238 C 505.637 533.239 505.637 533.239 504.699 533.24 C 502.88 533.286 502.88 533.286 500.511 534.092 C 500.529 534.992 500.547 535.893 500.565 536.82 C 500.627 540.162 500.667 543.504 500.699 546.846 C 500.716 548.292 500.739 549.738 500.769 551.184 C 500.81 553.264 500.83 555.343 500.844 557.422 C 500.862 558.068 500.88 558.714 500.898 559.379 C 500.9 563.845 500.9 563.845 498.985 566.25 C 496.199 567.886 493.507 567.826 490.277 567.782 C 489.67 567.799 489.064 567.818 488.438 567.836 C 485.511 567.829 483.825 567.638 481.576 565.934 C 479.35 562.513 479.565 559.516 479.601 555.631 C 479.595 554.832 479.589 554.032 479.583 553.208 C 479.568 550.568 479.578 547.928 479.59 545.288 C 479.588 543.453 479.584 541.617 479.58 539.782 C 479.575 535.938 479.582 532.095 479.598 528.25 C 479.617 523.319 479.606 518.388 479.586 513.457 C 479.574 509.668 479.577 505.88 479.587 502.092 C 479.588 500.274 479.586 498.455 479.578 496.636 C 479.57 494.097 479.582 491.559 479.601 489.02 C 479.594 488.266 479.588 487.512 479.581 486.735 C 479.651 481.673 479.651 481.673 481.59 479.194 C 484.341 477.649 486.57 477.747 489.797 477.769 Z" fill="#1ED6FC" style="" transform="matrix(0.9999999999999999, 0, 0, 0.9999999999999999, 0, 0)"/>
  <path d="M 396.232 477.683 C 397.071 477.676 397.071 477.676 397.928 477.67 C 399.767 477.661 401.605 477.679 403.445 477.698 C 404.729 477.7 406.013 477.7 407.297 477.698 C 409.984 477.7 412.671 477.714 415.357 477.738 C 418.796 477.768 422.234 477.771 425.673 477.766 C 428.322 477.763 430.973 477.772 433.623 477.785 C 434.89 477.791 436.158 477.793 437.426 477.792 C 439.2 477.794 440.973 477.81 442.746 477.83 C 443.754 477.837 444.762 477.843 445.801 477.85 C 448.757 478.178 450.377 478.845 452.751 480.415 C 454.079 482.77 453.831 485.251 453.87 487.834 C 453.907 488.642 453.907 488.642 453.945 489.466 C 453.983 492.289 453.725 493.857 451.987 496.253 C 449.443 498.45 448.066 498.658 444.613 498.715 C 443.799 498.731 442.986 498.746 442.148 498.762 C 441.291 498.774 440.434 498.786 439.551 498.799 C 438.765 498.813 437.979 498.827 437.169 498.842 C 434.225 498.894 431.282 498.939 428.338 498.985 C 421.759 499.094 415.18 499.203 408.402 499.316 C 408.402 515.033 408.402 530.75 408.402 546.944 C 420.84 547.133 420.84 547.133 433.279 547.306 C 434.843 547.332 436.406 547.359 437.969 547.387 C 439.179 547.4 439.179 547.4 440.414 547.414 C 445.057 547.504 448.592 547.798 452.571 550.092 C 454.235 552.328 453.941 554.42 453.923 557.056 C 453.933 558.538 453.933 558.538 453.943 560.05 C 453.593 562.906 453 564.344 451.045 566.6 C 448.592 567.687 446.46 567.477 443.72 567.502 C 442.854 567.511 442.854 567.511 441.971 567.521 C 440.059 567.54 438.146 567.552 436.234 567.564 C 435.58 567.567 434.928 567.571 434.255 567.576 C 430.801 567.596 427.346 567.61 423.892 567.621 C 420.322 567.634 416.753 567.668 413.183 567.706 C 410.439 567.731 407.695 567.74 404.952 567.745 C 403.636 567.749 402.32 567.762 401.004 567.779 C 399.163 567.803 397.322 567.803 395.48 567.798 C 394.432 567.804 393.384 567.81 392.305 567.816 C 389.64 567.356 389.64 567.356 387.597 565.931 C 385.612 562.519 385.745 559.501 385.773 555.712 C 385.766 554.922 385.758 554.131 385.751 553.316 C 385.732 550.704 385.737 548.092 385.745 545.48 C 385.74 543.663 385.735 541.847 385.729 540.031 C 385.72 536.225 385.724 532.42 385.736 528.615 C 385.751 523.736 385.731 518.858 385.701 513.979 C 385.682 510.229 385.683 506.48 385.691 502.73 C 385.692 500.93 385.686 499.132 385.673 497.333 C 385.658 494.819 385.67 492.306 385.69 489.792 C 385.68 489.048 385.67 488.304 385.659 487.538 C 385.713 484.159 385.848 482.423 388.035 479.576 C 391.015 477.844 392.685 477.677 396.232 477.683 Z" fill="#1DD6FD" style="" transform="matrix(0.9999999999999999, 0, 0, 0.9999999999999999, 0, 0)"/>
  <path d="M 59.905 252.574 C 62.938 255.006 65.196 256.966 65.882 260.665 C 66.11 265.07 65.297 268.993 62.143 272.513 C 61.018 273.012 59.892 273.511 58.732 274.025 C 58.732 301.219 58.732 328.413 58.732 356.43 C 52.822 357.179 52.822 357.179 46.792 357.942 C 44.351 358.458 42.03 358.979 39.649 359.643 C 39.048 359.807 38.446 359.97 37.826 360.138 C 22.145 364.478 8.004 370.388 -5.804 378.277 C -7.878 379.439 -9.86 380.436 -12.055 381.378 C -12.38 381.082 -12.706 380.786 -13.041 380.481 C -20.974 373.265 -28.933 366.072 -36.922 358.904 C -40.784 355.437 -44.637 351.962 -48.471 348.47 C -52.172 345.098 -55.896 341.749 -59.636 338.412 C -61.057 337.136 -62.47 335.853 -63.876 334.563 C -65.848 332.754 -67.848 330.973 -69.856 329.197 C -70.428 328.659 -71.001 328.121 -71.591 327.568 C -74.075 325.417 -75.738 324.042 -79.26 323.668 C -81.733 323.682 -81.733 323.682 -84.072 323.926 C -87.39 323.92 -89.282 322.611 -91.717 320.726 C -94.564 317.918 -95.459 315.164 -96.061 311.495 C -95.38 307.197 -93.092 304.19 -89.558 301.242 C -84.921 299.812 -79.857 299.746 -75.273 301.336 C -72.505 303.501 -70.008 305.85 -68.343 308.802 C -68.392 310.157 -68.466 311.512 -68.556 312.865 C -68.691 316.255 -68.691 316.255 -66.477 318.913 C -65.686 319.319 -64.894 319.724 -64.079 320.142 C -61.638 322.194 -59.41 324.33 -57.256 326.615 C -55.182 328.792 -52.987 330.497 -50.433 332.238 C -47.992 334.291 -45.764 336.426 -43.61 338.711 C -41.536 340.888 -39.341 342.593 -36.788 344.334 C -33.912 346.753 -31.32 349.312 -28.792 352.012 C -26.996 353.818 -25.068 355.489 -23.142 357.186 C -22.304 357.96 -21.469 358.736 -20.636 359.513 C -19.765 360.312 -18.896 361.112 -18.025 361.911 C -17.592 362.32 -17.158 362.73 -16.712 363.152 C -14.915 364.785 -13.225 366.118 -10.915 367.141 C -7.144 366.93 -4.423 365.045 -1.288 363.281 C 13.373 355.427 29.767 349.514 46.792 347.358 C 46.792 322.909 46.792 298.46 46.792 273.269 C 45.385 272.77 43.978 272.271 42.528 271.757 C 39.766 268.769 38.486 265.025 38.733 261.188 C 39.711 257.294 42.112 254.451 45.673 252.101 C 50.702 250.755 55.118 250.53 59.905 252.574 Z" fill="#23D0F4" style="" transform="matrix(0.9999999999999999, 0, 0, 0.9999999999999999, 0, 0)"/>
  <path d="M 290.007 477.916 C 290.708 477.91 291.409 477.903 292.13 477.897 C 294.445 477.879 296.759 477.872 299.073 477.867 C 300.684 477.86 302.294 477.853 303.905 477.847 C 307.279 477.834 310.653 477.828 314.028 477.826 C 318.351 477.822 322.673 477.794 326.997 477.759 C 330.322 477.736 333.647 477.731 336.972 477.73 C 338.566 477.727 340.16 477.717 341.754 477.702 C 343.983 477.682 346.211 477.685 348.441 477.695 C 349.427 477.678 349.427 477.678 350.432 477.661 C 353.81 477.701 355.368 478.04 358.07 479.895 C 360.355 482.597 360.279 484.302 360.162 487.645 C 360.135 489.12 360.135 489.12 360.106 490.625 C 359.654 494.402 359.654 494.402 358.084 496.292 C 355.109 498.01 352.456 498.025 348.959 498.09 C 347.307 498.129 347.307 498.129 345.623 498.169 C 344.464 498.189 343.305 498.21 342.146 498.229 C 339.869 498.273 337.591 498.322 335.314 498.374 C 334.303 498.392 333.293 498.41 332.253 498.429 C 330.012 498.329 330.012 498.329 329.087 499.316 C 328.994 501.301 328.956 503.267 328.952 505.253 C 328.948 505.875 328.944 506.497 328.939 507.137 C 328.93 508.493 328.922 509.848 328.917 511.204 C 328.907 513.349 328.89 515.493 328.872 517.638 C 328.819 523.737 328.773 529.836 328.745 535.935 C 328.727 539.662 328.696 543.387 328.659 547.114 C 328.647 548.536 328.639 549.958 328.637 551.379 C 328.632 553.369 328.613 555.357 328.589 557.346 C 328.591 557.935 328.594 558.524 328.597 559.131 C 328.555 561.544 328.409 563.292 327.092 565.431 C 323.986 567.996 319.959 567.601 315.957 567.578 C 313.736 567.356 313.736 567.356 311.497 565.939 C 309.25 562.86 309.325 560.333 309.296 556.75 C 309.288 556.123 309.279 555.496 309.271 554.85 C 309.244 552.772 309.222 550.694 309.201 548.616 C 309.184 547.177 309.166 545.739 309.148 544.3 C 309.1 540.51 309.058 536.718 309.018 532.928 C 308.974 529.062 308.927 525.195 308.88 521.329 C 308.788 513.74 308.701 506.149 308.618 498.56 C 307.489 498.549 307.489 498.549 306.337 498.538 C 303.531 498.505 300.727 498.458 297.921 498.403 C 296.709 498.382 295.497 498.365 294.285 498.355 C 292.539 498.339 290.793 498.303 289.046 498.265 C 287.996 498.249 286.947 498.233 285.865 498.216 C 282.559 497.735 281.134 496.843 278.769 494.78 C 277.514 492.556 277.77 490.544 277.755 488.07 C 277.743 487.136 277.731 486.203 277.719 485.241 C 277.904 482.84 278.029 481.574 279.621 479.659 C 282.814 477.698 286.273 477.919 290.007 477.916 Z" fill="#20D3F8" style="" transform="matrix(0.9999999999999999, 0, 0, 0.9999999999999999, 0, 0)"/>
  <path d="M 123.523 476.916 C 124.464 476.914 124.464 476.914 125.425 476.911 C 126.073 476.93 126.72 476.948 127.388 476.966 C 128.035 476.957 128.682 476.949 129.349 476.941 C 134.015 476.995 134.015 476.995 136.417 478.525 C 138.713 481.186 138.536 483.648 138.514 486.866 C 138.523 487.515 138.531 488.165 138.54 488.834 C 138.565 490.977 138.567 493.12 138.568 495.264 C 138.581 496.751 138.595 498.238 138.61 499.725 C 138.648 503.639 138.665 507.551 138.678 511.463 C 138.694 515.456 138.73 519.45 138.764 523.443 C 138.829 531.277 138.871 539.11 138.901 546.944 C 139.675 546.946 139.675 546.946 140.465 546.947 C 145.832 546.962 151.2 547.003 156.568 547.059 C 158.571 547.077 160.575 547.088 162.579 547.092 C 165.458 547.099 168.337 547.13 171.216 547.166 C 172.112 547.163 173.009 547.16 173.933 547.157 C 180.13 547.266 180.13 547.266 182.961 549.453 C 184.467 552.127 184.555 554.169 184.529 557.15 C 184.542 558.612 184.542 558.612 184.555 560.103 C 184.042 563.183 183.147 564.423 180.691 566.6 C 178.313 567.654 176.352 567.464 173.692 567.478 C 172.579 567.486 171.466 567.492 170.32 567.5 C 169.098 567.504 167.877 567.507 166.656 567.51 C 165.406 567.514 164.157 567.519 162.907 567.523 C 160.286 567.531 157.663 567.536 155.042 567.538 C 151.686 567.542 148.331 567.56 144.976 567.582 C 142.394 567.596 139.812 567.6 137.23 567.601 C 135.993 567.603 134.756 567.609 133.52 567.619 C 131.787 567.632 130.054 567.629 128.321 567.626 C 127.336 567.629 126.35 567.632 125.335 567.634 C 122.371 567.322 120.804 566.67 118.433 565.088 C 116.649 562.718 116.511 562.173 116.498 559.473 C 116.492 558.789 116.484 558.104 116.476 557.398 C 116.477 556.649 116.478 555.9 116.479 555.128 C 116.473 554.337 116.468 553.546 116.462 552.732 C 116.446 550.112 116.442 547.492 116.44 544.871 C 116.435 543.053 116.429 541.234 116.423 539.416 C 116.413 535.602 116.41 531.787 116.411 527.973 C 116.411 523.082 116.388 518.192 116.358 513.301 C 116.339 509.545 116.336 505.789 116.336 502.032 C 116.335 500.229 116.327 498.426 116.314 496.623 C 116.297 494.101 116.302 491.581 116.313 489.06 C 116.303 488.313 116.293 487.567 116.284 486.798 C 116.318 483.508 116.379 481.674 118.354 478.818 C 120.277 477.281 120.981 476.914 123.523 476.916 Z" fill="#20D5FA" style="" transform="matrix(0.9999999999999999, 0, 0, 0.9999999999999999, 0, 0)"/>
  <path d="M 221.597 477.72 C 222.34 477.715 223.082 477.71 223.847 477.705 C 225.415 477.7 226.982 477.702 228.551 477.712 C 230.945 477.723 233.337 477.697 235.732 477.668 C 237.257 477.667 238.782 477.669 240.307 477.673 C 241.378 477.658 241.378 477.658 242.469 477.642 C 246.142 477.694 247.641 477.86 250.652 479.898 C 252.873 482.584 252.846 484.295 252.757 487.598 C 252.748 488.572 252.739 489.547 252.73 490.551 C 252.297 493.496 252.033 494.859 249.772 497.048 C 247.239 497.796 244.706 498.545 242.097 499.316 C 241.815 515.033 241.534 530.75 241.244 546.944 C 243.777 547.443 246.31 547.942 248.919 548.456 C 250.652 549.661 250.652 549.661 251.478 551.48 C 251.773 553.697 251.913 555.694 251.904 557.906 C 251.928 558.481 251.952 559.055 251.978 559.646 C 251.98 560.48 251.98 560.48 251.984 561.332 C 251.99 561.835 251.996 562.339 252.003 562.857 C 251.13 565.31 249.674 566.062 247.214 567.356 C 244.745 567.776 242.335 567.763 239.827 567.732 C 239.123 567.733 238.417 567.734 237.691 567.735 C 236.204 567.734 234.719 567.725 233.233 567.709 C 230.96 567.687 228.69 567.694 226.417 567.703 C 224.97 567.699 223.524 567.693 222.078 567.684 C 221.061 567.687 221.061 567.687 220.023 567.691 C 217.239 567.649 215.169 567.532 212.698 566.344 C 209.987 563.735 210.318 560.622 210.221 557.245 C 210.179 556.257 210.138 555.269 210.094 554.25 C 210.541 551.48 210.541 551.48 212.32 549.325 C 214.805 547.7 214.805 547.7 220.775 546.188 C 220.775 530.72 220.775 515.252 220.775 499.316 C 218.242 498.567 215.709 497.819 213.1 497.048 C 210.013 494.312 210.193 493.513 210.15 489.891 C 210.156 489.274 210.161 488.658 210.167 488.023 C 210.15 487.409 210.133 486.796 210.116 486.164 C 210.116 485.57 210.117 484.976 210.117 484.364 C 210.116 483.824 210.115 483.285 210.113 482.728 C 211.57 477.43 216.503 477.693 221.597 477.72 Z" fill="#1FD5FB" style="" transform="matrix(0.9999999999999999, 0, 0, 0.9999999999999999, 0, 0)"/>
  <path d="M 65.395 490.008 C 71.742 490.56 77.607 493.547 81.76 497.804 C 85.495 502.649 86.987 507.094 86.024 512.924 C 84.862 517.886 81.793 521.728 77.496 525.02 C 74.589 526.521 71.539 528.044 68.114 528.044 C 68.082 528.894 68.05 529.744 68.018 530.62 C 67.464 543.643 66.291 556.622 65.156 569.613 C 64.675 575.158 64.251 580.707 63.85 586.257 C 57.14 587.193 52.139 586.865 45.78 584.792 C 45.008 584.551 44.237 584.31 43.441 584.061 C 30.874 580.016 19.301 574.566 9.114 566.822 C 6.85 564.983 6.85 564.983 4.15 564.332 C 4.15 563.833 4.15 563.334 4.15 562.82 C 4.995 562.446 4.995 562.446 5.856 562.064 C 7.046 559.336 7.841 556.626 8.415 553.748 C 9.914 553.211 9.914 553.211 11.826 552.992 C 13.418 554.002 13.418 554.002 15.131 555.544 C 25.872 564.446 39.69 570.277 53.616 574.16 C 53.663 573.414 53.71 572.667 53.759 571.897 C 53.936 569.102 54.116 566.306 54.297 563.511 C 54.376 562.305 54.452 561.1 54.528 559.895 C 54.638 558.153 54.752 556.412 54.865 554.67 C 54.898 554.139 54.931 553.608 54.965 553.061 C 55.202 549.483 55.654 545.963 56.174 542.408 C 57.576 533.525 57.576 533.525 54.612 525.511 C 52.627 524.419 52.627 524.419 50.488 523.621 C 47.194 522.183 45.713 519.596 44.234 516.704 C 42.473 511.85 42.344 505.871 44.874 501.253 C 45.488 500.342 46.126 499.442 46.793 498.56 C 47.268 497.89 47.743 497.219 48.232 496.528 C 53.191 492.132 58.602 490.677 65.395 490.008 Z" fill="#B9ECF3" style="" transform="matrix(0.9999999999999999, 0, 0, 0.9999999999999999, 0, 0)"/>
  <path d="M 59.905 252.574 C 62.938 255.006 65.196 256.966 65.882 260.665 C 66.11 265.07 65.297 268.993 62.143 272.513 C 60.455 273.262 60.455 273.262 58.732 274.025 C 58.732 301.219 58.732 328.413 58.732 356.43 C 54.51 356.43 50.289 356.43 45.939 356.43 C 46.792 352.65 46.792 352.65 47.264 351.104 C 47.68 349.492 47.764 348.045 47.781 346.393 C 47.793 345.432 47.793 345.432 47.805 344.452 C 47.81 343.756 47.816 343.06 47.821 342.343 C 47.829 341.605 47.838 340.867 47.846 340.107 C 47.873 337.669 47.894 335.231 47.915 332.793 C 47.932 331.102 47.95 329.412 47.969 327.721 C 48.016 323.272 48.058 318.823 48.1 314.373 C 48.142 309.832 48.19 305.292 48.237 300.752 C 48.328 291.843 48.415 282.934 48.498 274.025 C 47.694 273.822 46.891 273.618 46.063 273.408 C 42.597 272.252 41.728 270.806 39.969 267.977 C 38.667 264.514 38.31 261.395 39.89 258.002 C 44.246 251.293 51.956 249.181 59.905 252.574 Z" fill="#1CD7FD" style="" transform="matrix(0.9999999999999999, 0, 0, 0.9999999999999999, 0, 0)"/>
  <path d="M 46.792 274.025 C 47.355 274.025 47.918 274.025 48.498 274.025 C 48.558 283.765 48.603 293.505 48.631 303.244 C 48.644 307.767 48.662 312.29 48.691 316.812 C 48.719 321.181 48.734 325.548 48.741 329.915 C 48.746 331.579 48.755 333.243 48.769 334.906 C 48.787 337.242 48.79 339.577 48.789 341.914 C 48.798 342.596 48.807 343.279 48.817 343.982 C 48.792 348.508 47.836 352.23 45.939 356.43 C 47.628 356.43 49.317 356.43 51.056 356.43 C 51.056 356.68 51.056 356.929 51.056 357.186 C 50.003 357.398 48.951 357.609 47.865 357.827 C 31.49 361.219 15.133 366.209 1.058 374.574 C -1.961 376.16 -3.496 376.467 -6.938 376.086 C -6.938 374.59 -6.938 373.093 -6.938 371.55 C -7.501 371.55 -8.063 371.55 -8.643 371.55 C -8.643 370.802 -8.643 370.053 -8.643 369.282 C -7.054 367.903 -7.054 367.903 -4.965 366.494 C -3.941 365.789 -3.941 365.789 -2.896 365.068 C -0.968 363.99 -0.968 363.99 1.591 363.99 C 1.591 363.242 1.591 362.493 1.591 361.722 C 32.106 347.358 32.106 347.358 46.792 347.358 C 46.792 323.158 46.792 298.958 46.792 274.025 Z" fill="#22D2F6" style="" transform="matrix(0.9999999999999999, 0, 0, 0.9999999999999999, 0, 0)"/>
  <path d="M 65.502 490.055 C 68.846 490.296 71.156 491.065 74.084 492.512 C 75.31 494.544 75.31 494.544 75.79 496.292 C 74.664 496.292 73.538 496.292 72.379 496.292 C 72.379 496.791 72.379 497.29 72.379 497.804 C 71.816 497.804 71.253 497.804 70.673 497.804 C 70.391 498.552 70.11 499.301 69.82 500.072 C 66.161 499.822 62.503 499.573 58.733 499.316 C 58.451 500.314 58.17 501.312 57.88 502.34 C 57.282 503.01 56.684 503.681 56.068 504.372 C 53.946 507.695 54.196 510.057 55.322 513.68 C 56.574 515.392 56.574 515.392 57.88 516.704 C 57.88 517.702 57.88 518.7 57.88 519.728 C 56.674 520.005 55.466 520.27 54.255 520.532 C 53.247 520.755 53.247 520.755 52.216 520.983 C 50.073 521.257 48.804 521.177 46.793 520.484 C 42.83 515.67 42.77 510.388 43.382 504.608 C 44.185 502.353 45.312 500.517 46.793 498.56 C 47.505 497.554 47.505 497.554 48.232 496.528 C 53.189 492.133 58.667 490.57 65.502 490.055 Z" fill="#BAEEF5" style="" transform="matrix(0.9999999999999999, 0, 0, 0.9999999999999999, 0, 0)"/>
  <path d="M 59.905 252.574 C 62.938 255.006 65.196 256.966 65.882 260.665 C 66.114 265.154 65.17 268.853 62.143 272.513 C 61.299 273.012 60.455 273.511 59.585 274.025 C 58.892 272.371 58.892 272.371 58.732 270.245 C 59.419 269.715 60.104 269.185 60.811 268.639 C 63.775 265.691 63.345 263.649 63.146 259.835 C 63.097 259.279 63.048 258.722 62.996 258.149 C 62.152 258.523 62.152 258.523 61.291 258.905 C 61.572 259.155 61.854 259.404 62.143 259.661 C 62.699 263.062 62.619 265.688 60.758 268.733 C 56.149 271.154 51.206 270.932 45.939 271.001 C 45.658 271.75 45.376 272.498 45.086 273.269 C 40.953 269.895 39.383 267.767 38.744 262.827 C 38.864 259.081 40.653 256.404 43.381 253.613 C 48.296 250.371 54.491 250.263 59.905 252.574 Z" fill="#32C5E3" style="" transform="matrix(0.9999999999999999, 0, 0, 0.9999999999999999, 0, 0)"/>
  <path d="M 68.113 500.072 C 70.946 501.647 73.428 503.445 74.936 506.12 C 75.233 510.125 75.393 512.741 72.378 515.948 C 69.616 518.006 67.861 518.896 64.276 519.35 C 60.666 518.892 58.928 518.056 56.174 515.948 C 53.92 512.885 53.016 510.517 53.615 506.876 C 56.747 501.631 61.185 498.597 68.113 500.072 Z" fill="#040708" style="" transform="matrix(0.9999999999999999, 0, 0, 0.9999999999999999, 0, 0)"/>
  <path d="M 396.3 477.718 C 396.867 477.717 397.433 477.717 398.016 477.717 C 399.877 477.719 401.736 477.748 403.596 477.778 C 404.889 477.785 406.184 477.791 407.478 477.794 C 410.876 477.809 414.273 477.846 417.669 477.887 C 421.14 477.927 424.61 477.943 428.08 477.962 C 434.883 478.003 441.685 478.067 448.487 478.147 C 448.487 478.397 448.487 478.646 448.487 478.903 C 445.132 479.452 441.933 479.763 438.523 479.802 C 437.593 479.815 436.663 479.828 435.704 479.841 C 434.712 479.851 433.721 479.861 432.699 479.872 C 431.672 479.886 430.643 479.9 429.585 479.914 C 425.195 479.973 420.805 480.025 416.416 480.077 C 413.208 480.116 410.001 480.159 406.794 480.202 C 405.797 480.213 404.8 480.223 403.773 480.234 C 402.39 480.253 402.39 480.253 400.978 480.272 C 399.76 480.286 399.76 480.286 398.517 480.301 C 396.34 480.344 396.34 480.344 393.905 481.171 C 393.905 480.673 393.905 480.174 393.905 479.659 C 392.216 480.158 390.527 480.657 388.788 481.171 C 388.506 508.864 388.225 536.557 387.935 565.088 C 385.871 563.259 386.012 562.823 385.994 560.32 C 385.986 559.636 385.977 558.953 385.969 558.249 C 385.969 557.497 385.968 556.744 385.967 555.969 C 385.96 555.179 385.954 554.389 385.946 553.574 C 385.925 550.949 385.918 548.325 385.912 545.701 C 385.905 543.882 385.896 542.062 385.889 540.242 C 385.875 536.424 385.868 532.604 385.866 528.786 C 385.861 523.889 385.829 518.993 385.79 514.096 C 385.765 510.337 385.758 506.577 385.757 502.817 C 385.754 501.012 385.744 499.207 385.726 497.401 C 385.703 494.876 385.707 492.353 385.717 489.828 C 385.705 489.08 385.693 488.332 385.679 487.562 C 385.72 484.175 385.845 482.429 388.029 479.57 C 391.038 477.832 392.724 477.689 396.3 477.718 Z" fill="#31C2E2" style="" transform="matrix(0.9999999999999999, 0, 0, 0.9999999999999999, 0, 0)"/>
  <path d="M 55.321 255.125 C 57.669 256.483 59.182 257.433 60.438 259.661 C 60.759 263.435 60.501 265.694 57.879 268.733 C 54.894 270.056 51.747 270.011 48.498 269.489 C 46.246 268.166 45.64 267.124 44.234 264.953 C 43.725 262.192 43.996 260.857 45.353 258.338 C 48.233 254.935 50.731 254.704 55.321 255.125 Z" fill="#01080C" style="" transform="matrix(0.9999999999999999, 0, 0, 0.9999999999999999, 0, 0)"/>
  <path d="M 490.063 477.958 C 490.658 477.972 491.253 477.986 491.866 478 C 493.327 478.036 494.787 478.089 496.246 478.147 C 496.246 478.397 496.246 478.646 496.246 478.903 C 495.486 478.995 494.725 479.086 493.941 479.181 C 492.943 479.308 491.945 479.434 490.916 479.565 C 489.927 479.687 488.937 479.811 487.918 479.937 C 485.48 480.36 483.901 480.908 481.748 481.927 C 481.728 491.22 481.713 500.514 481.704 509.807 C 481.699 514.123 481.693 518.439 481.684 522.755 C 481.675 526.926 481.669 531.097 481.668 535.269 C 481.666 536.854 481.663 538.439 481.658 540.024 C 481.635 548.164 481.646 556.228 482.601 564.332 C 486.02 565.631 488.513 566.011 492.249 565.939 C 493.616 565.918 493.616 565.918 495.011 565.897 C 495.7 565.88 496.39 565.862 497.099 565.844 C 497.521 564.722 497.521 564.722 497.952 563.576 C 498.374 562.454 498.374 562.454 498.805 561.308 C 498.936 559.19 499.025 557.088 499.075 554.968 C 499.093 554.35 499.11 553.732 499.129 553.096 C 499.184 551.124 499.235 549.152 499.285 547.181 C 499.322 545.843 499.359 544.506 499.397 543.169 C 499.488 539.891 499.574 536.613 499.658 533.336 C 500.221 533.336 500.784 533.336 501.363 533.336 C 501.363 532.837 501.363 532.338 501.363 531.824 C 513.466 531.824 525.568 531.824 538.036 531.824 C 538.036 532.073 538.036 532.323 538.036 532.58 C 536.991 532.599 535.945 532.618 534.867 532.637 C 530.991 532.709 527.114 532.784 523.238 532.861 C 521.559 532.895 519.881 532.926 518.202 532.956 C 515.79 533 513.379 533.048 510.968 533.097 C 510.217 533.109 509.465 533.122 508.69 533.135 C 507.641 533.158 507.641 533.158 506.57 533.181 C 505.954 533.192 505.339 533.204 504.705 533.217 C 502.881 533.292 502.881 533.292 500.511 534.092 C 500.529 534.992 500.546 535.893 500.565 536.82 C 500.627 540.162 500.666 543.504 500.698 546.846 C 500.715 548.292 500.739 549.738 500.768 551.184 C 500.81 553.264 500.829 555.343 500.844 557.422 C 500.862 558.068 500.879 558.714 500.898 559.379 C 500.9 563.845 500.9 563.845 498.984 566.25 C 496.198 567.886 493.506 567.826 490.276 567.782 C 489.67 567.799 489.063 567.818 488.438 567.836 C 485.511 567.829 483.825 567.638 481.576 565.934 C 479.35 562.513 479.565 559.516 479.601 555.631 C 479.595 554.832 479.589 554.032 479.583 553.208 C 479.568 550.568 479.578 547.928 479.589 545.288 C 479.587 543.453 479.584 541.617 479.58 539.782 C 479.575 535.938 479.582 532.095 479.598 528.25 C 479.617 523.319 479.606 518.388 479.586 513.457 C 479.573 509.668 479.577 505.88 479.586 502.092 C 479.588 500.274 479.586 498.455 479.577 496.636 C 479.569 494.097 479.582 491.559 479.601 489.02 C 479.594 488.266 479.588 487.512 479.58 486.735 C 479.651 481.677 479.651 481.677 481.58 479.188 C 484.328 477.663 486.937 477.822 490.063 477.958 Z" fill="#34CAE8" style="" transform="matrix(0.9999999999999999, 0, 0, 0.9999999999999999, 0, 0)"/>
  <path d="M 486.022 477.244 C 486.669 477.249 487.314 477.254 487.98 477.259 C 488.65 477.271 489.32 477.284 490.01 477.297 C 490.69 477.304 491.371 477.311 492.071 477.318 C 493.748 477.335 495.423 477.363 497.1 477.391 C 497.382 477.89 497.663 478.389 497.953 478.903 C 496.935 478.878 495.919 478.851 494.871 478.824 C 493.535 478.803 492.2 478.782 490.863 478.762 C 490.194 478.743 489.523 478.724 488.833 478.705 C 488.187 478.697 487.541 478.69 486.875 478.682 C 486.282 478.671 485.687 478.659 485.076 478.646 C 482.904 478.991 482.26 479.652 480.896 481.171 C 480.519 482.799 480.519 482.799 480.588 484.63 C 480.585 485.339 480.581 486.048 480.577 486.78 C 480.591 487.944 480.591 487.944 480.605 489.132 C 480.605 489.951 480.604 490.771 480.604 491.613 C 480.606 494.326 480.625 497.038 480.646 499.75 C 480.65 501.628 480.654 503.506 480.657 505.385 C 480.666 509.826 480.686 514.268 480.712 518.71 C 480.742 524.263 480.757 529.816 480.77 535.37 C 480.798 545.276 480.841 555.182 480.896 565.088 C 478.337 563.576 478.337 563.576 477.754 561.686 C 477.407 558.277 477.397 554.915 477.438 551.495 C 477.444 550.747 477.449 549.999 477.455 549.228 C 477.474 546.764 477.501 544.3 477.527 541.835 C 477.544 540.12 477.56 538.405 477.577 536.69 C 477.612 533.099 477.65 529.509 477.691 525.918 C 477.742 521.313 477.782 516.708 477.819 512.104 C 477.849 508.564 477.887 505.024 477.927 501.485 C 477.945 499.786 477.96 498.088 477.972 496.39 C 477.991 494.019 478.02 491.648 478.052 489.277 C 478.055 488.575 478.058 487.872 478.061 487.147 C 478.072 486.501 478.082 485.854 478.093 485.188 C 478.099 484.629 478.105 484.069 478.111 483.492 C 478.377 481.653 478.928 480.47 480.043 478.903 C 482.642 477.368 483.114 477.205 486.022 477.244 Z" fill="#013341" style="" transform="matrix(0.9999999999999999, 0, 0, 0.9999999999999999, 0, 0)"/>
  <path d="M 57.026 274.025 C 57.589 274.025 58.152 274.025 58.732 274.025 C 58.732 301.219 58.732 328.413 58.732 356.43 C 56.481 356.43 54.229 356.43 51.909 356.43 C 51.909 355.931 51.909 355.432 51.909 354.918 C 53.598 354.918 55.287 354.918 57.026 354.918 C 57.026 328.224 57.026 301.529 57.026 274.025 Z" fill="#299FB8" style="" transform="matrix(0.9999999999999999, 0, 0, 0.9999999999999999, 0, 0)"/>
  <path d="M 386.228 479.659 C 386.791 479.909 387.354 480.158 387.934 480.415 C 387.652 480.914 387.371 481.413 387.081 481.927 C 386.993 483.019 386.956 484.115 386.946 485.209 C 386.938 485.898 386.93 486.588 386.922 487.297 C 386.916 488.055 386.911 488.813 386.906 489.594 C 386.898 490.391 386.889 491.187 386.881 492.008 C 386.853 494.65 386.833 497.293 386.812 499.936 C 386.794 501.764 386.776 503.592 386.758 505.421 C 386.711 510.241 386.668 515.061 386.627 519.881 C 386.585 524.796 386.537 529.711 386.49 534.627 C 386.398 544.276 386.312 553.927 386.228 563.576 C 384.165 561.747 384.309 561.322 384.306 558.822 C 384.302 558.141 384.296 557.46 384.291 556.759 C 384.295 556.011 384.298 555.263 384.302 554.491 C 384.299 553.704 384.296 552.917 384.293 552.107 C 384.285 549.496 384.29 546.885 384.296 544.275 C 384.295 542.466 384.293 540.659 384.291 538.851 C 384.289 535.058 384.292 531.265 384.301 527.472 C 384.31 522.601 384.304 517.73 384.294 512.859 C 384.288 509.124 384.29 505.39 384.295 501.656 C 384.296 499.859 384.294 498.063 384.29 496.266 C 384.286 493.759 384.292 491.252 384.302 488.745 C 384.299 487.996 384.295 487.248 384.291 486.476 C 384.296 485.796 384.302 485.116 384.306 484.414 C 384.307 483.821 384.308 483.228 384.308 482.617 C 384.522 481.171 384.522 481.171 386.228 479.659 Z" fill="#001C28" style="" transform="matrix(0.9999999999999999, 0, 0, 0.9999999999999999, 0, 0)"/>
  <path d="M 46.792 274.025 C 47.355 274.025 47.918 274.025 48.498 274.025 C 48.498 298.724 48.498 323.423 48.498 348.87 C 47.091 348.621 45.683 348.371 44.234 348.114 C 45.5 347.74 45.5 347.74 46.792 347.358 C 46.792 323.158 46.792 298.958 46.792 274.025 Z" fill="#36BAD6" style="" transform="matrix(0.9999999999999999, 0, 0, 0.9999999999999999, 0, 0)"/>
  <path d="M 220.774 499.316 C 221.056 499.316 221.337 499.316 221.627 499.316 C 221.667 505.401 221.697 511.486 221.716 517.572 C 221.724 520.397 221.737 523.223 221.756 526.048 C 221.775 528.774 221.785 531.499 221.789 534.224 C 221.793 535.265 221.799 536.306 221.808 537.347 C 221.82 538.803 221.821 540.258 221.821 541.714 C 221.825 542.543 221.829 543.373 221.833 544.227 C 221.627 546.188 221.627 546.188 219.922 547.7 C 218.193 548.131 216.462 548.417 214.698 548.713 C 212.772 549.155 212.772 549.155 211.393 551.48 C 211.227 553.39 211.155 555.196 211.18 557.103 C 211.176 558.1 211.171 559.097 211.167 560.124 C 211.371 562.551 211.551 563.877 213.099 565.844 C 215.865 567.07 218.902 566.739 221.941 566.754 C 222.65 566.758 223.359 566.763 224.089 566.767 C 225.59 566.774 227.092 566.779 228.593 566.782 C 230.888 566.789 233.182 566.813 235.477 566.837 C 236.934 566.842 238.393 566.845 239.851 566.848 C 240.88 566.863 240.88 566.863 241.929 566.877 C 244.737 566.866 246.836 566.776 249.347 565.609 C 251.39 563.567 251.154 561.564 251.264 558.899 C 251.336 557.456 251.336 557.456 251.411 555.984 C 251.444 554.877 251.444 554.877 251.477 553.748 C 251.759 553.748 252.04 553.748 252.33 553.748 C 252.423 555.576 252.49 557.401 252.543 559.229 C 252.587 560.003 252.587 560.003 252.63 560.791 C 252.682 563.153 252.579 564.75 251.109 566.75 C 247.806 568.804 244.783 568.532 240.84 568.487 C 239.664 568.489 239.664 568.489 238.463 568.491 C 236.809 568.49 235.154 568.481 233.498 568.465 C 230.962 568.444 228.427 568.45 225.89 568.459 C 224.281 568.455 222.673 568.448 221.064 568.44 C 219.925 568.444 219.925 568.444 218.763 568.447 C 218.057 568.437 217.351 568.428 216.624 568.418 C 216.004 568.414 215.383 568.409 214.744 568.406 C 212.624 568.028 211.887 567.315 210.54 565.844 C 207.971 561.311 207.963 555.919 209.411 551.058 C 210.004 549.662 210.689 548.298 211.393 546.944 C 213.926 546.944 216.459 546.944 219.069 546.944 C 219.069 546.445 219.069 545.946 219.069 545.432 C 219.632 545.432 220.194 545.432 220.774 545.432 C 220.774 530.214 220.774 514.995 220.774 499.316 Z" fill="#012430" style="" transform="matrix(0.9999999999999999, 0, 0, 0.9999999999999999, 0, 0)"/>
  <path d="M 409.995 498.469 C 411.038 498.471 411.038 498.471 412.101 498.474 C 412.887 498.474 413.672 498.474 414.482 498.474 C 415.335 498.478 416.189 498.482 417.068 498.486 C 417.938 498.487 418.807 498.488 419.704 498.489 C 422.493 498.494 425.282 498.503 428.072 498.513 C 429.958 498.517 431.844 498.52 433.73 498.523 C 438.365 498.531 443 498.544 447.635 498.56 C 447.635 498.809 447.635 499.059 447.635 499.316 C 446.533 499.335 445.431 499.353 444.295 499.373 C 440.216 499.444 436.138 499.52 432.06 499.598 C 430.293 499.63 428.525 499.662 426.758 499.692 C 424.223 499.735 421.686 499.784 419.15 499.833 C 417.96 499.852 417.96 499.852 416.746 499.871 C 416.012 499.886 415.278 499.901 414.522 499.917 C 413.55 499.934 413.55 499.934 412.559 499.952 C 410.884 499.99 410.884 499.99 409.256 500.828 C 409.256 516.046 409.256 531.265 409.256 546.944 C 423.047 546.944 436.837 546.944 451.046 546.944 C 450.624 548.067 450.624 548.067 450.193 549.212 C 449.71 549.09 449.228 548.969 448.73 548.843 C 446.725 548.446 444.938 548.342 442.885 548.313 C 442.119 548.3 441.354 548.288 440.565 548.275 C 439.746 548.265 438.927 548.254 438.083 548.244 C 437.238 548.23 436.393 548.216 435.522 548.201 C 431.907 548.142 428.293 548.091 424.677 548.039 C 422.039 548 419.4 547.956 416.762 547.913 C 415.937 547.903 415.113 547.892 414.263 547.882 C 413.507 547.87 412.749 547.857 411.969 547.844 C 410.964 547.829 410.964 547.829 409.94 547.815 C 408.403 547.7 408.403 547.7 407.55 546.944 C 407.466 545.464 407.441 543.981 407.44 542.498 C 407.437 541.547 407.434 540.596 407.432 539.616 C 407.434 538.571 407.435 537.524 407.437 536.479 C 407.436 535.414 407.435 534.348 407.434 533.284 C 407.434 531.049 407.435 528.814 407.439 526.58 C 407.444 523.71 407.441 520.839 407.436 517.969 C 407.433 515.769 407.434 513.569 407.436 511.369 C 407.437 510.31 407.436 509.252 407.434 508.193 C 407.432 506.716 407.436 505.239 407.44 503.762 C 407.44 502.92 407.441 502.077 407.442 501.21 C 407.59 498.607 407.59 498.607 409.995 498.469 Z" fill="#000F1A" style="" transform="matrix(0.9999999999999999, 0, 0, 0.9999999999999999, 0, 0)"/>
  <path d="M 449.339 494.78 C 450.465 495.029 451.591 495.279 452.751 495.536 C 450.115 498.046 448.077 498.782 444.323 498.972 C 442.65 499.003 440.975 499.019 439.302 499.02 C 438.518 499.032 437.735 499.044 436.927 499.056 C 434.011 499.096 431.094 499.11 428.178 499.127 C 418.389 499.22 418.389 499.22 408.402 499.316 C 408.121 514.285 407.839 529.254 407.55 544.676 C 407.268 544.676 406.987 544.676 406.697 544.676 C 406.677 538.689 406.662 532.702 406.653 526.716 C 406.648 523.937 406.642 521.157 406.633 518.377 C 406.623 515.695 406.618 513.015 406.616 510.333 C 406.615 509.309 406.611 508.284 406.607 507.26 C 406.6 505.829 406.6 504.397 406.6 502.965 C 406.599 502.148 406.596 501.333 406.594 500.492 C 406.697 498.56 406.697 498.56 407.55 497.048 C 421.34 497.048 435.131 497.048 449.339 497.048 C 449.339 496.299 449.339 495.551 449.339 494.78 Z" fill="#2FB0CB" style="" transform="matrix(0.9999999999999999, 0, 0, 0.9999999999999999, 0, 0)"/>
  <path d="M 221.597 477.72 C 222.34 477.715 223.082 477.71 223.847 477.705 C 225.415 477.7 226.982 477.702 228.551 477.712 C 230.945 477.723 233.337 477.697 235.732 477.668 C 237.257 477.667 238.782 477.669 240.307 477.673 C 241.378 477.658 241.378 477.658 242.469 477.642 C 246.142 477.694 247.641 477.86 250.652 479.898 C 252.873 482.584 252.846 484.295 252.757 487.598 C 252.748 488.572 252.739 489.547 252.73 490.551 C 252.314 493.382 251.826 494.864 249.772 497.048 C 247.843 497.748 247.843 497.748 245.774 498.04 C 245.085 498.146 244.396 498.253 243.685 498.362 C 243.161 498.427 242.636 498.492 242.097 498.56 C 242.097 498.061 242.097 497.562 242.097 497.048 C 243.785 497.048 245.474 497.048 247.214 497.048 C 247.214 496.549 247.214 496.05 247.214 495.536 C 248.058 495.536 248.902 495.536 249.772 495.536 C 249.754 494.928 249.736 494.32 249.719 493.693 C 249.772 491.756 249.772 491.756 250.625 491 C 250.908 487.422 250.786 483.899 249.772 480.415 C 246.532 479.458 243.44 479.483 240.061 479.421 C 239.364 479.405 238.667 479.389 237.949 479.373 C 235.725 479.324 233.5 479.279 231.276 479.235 C 229.767 479.202 228.258 479.169 226.75 479.136 C 223.052 479.055 219.355 478.978 215.658 478.903 C 215.552 479.762 215.447 480.619 215.338 481.503 C 215.162 482.392 214.986 483.28 214.805 484.196 C 213.961 484.57 213.961 484.57 213.1 484.952 C 213.054 486.542 213.02 488.134 212.993 489.724 C 212.972 490.61 212.953 491.496 212.932 492.409 C 212.883 494.904 212.883 494.904 214.805 497.048 C 211.5 495.63 211.5 495.63 210.541 494.78 C 210.387 492.548 210.303 490.351 210.274 488.118 C 210.249 487.497 210.225 486.877 210.199 486.238 C 210.192 485.637 210.185 485.036 210.178 484.417 C 210.165 483.868 210.153 483.319 210.14 482.752 C 211.493 477.419 216.528 477.693 221.597 477.72 Z" fill="#33CAEB" style="" transform="matrix(0.9999999999999999, 0, 0, 0.9999999999999999, 0, 0)"/>
  <path d="M 245.668 498.087 C 246.178 498.243 246.688 498.399 247.214 498.56 C 244.016 500.828 244.016 500.828 242.097 500.828 C 242.199 505.343 242.305 509.86 242.414 514.375 C 242.451 515.906 242.486 517.436 242.52 518.967 C 242.726 528.06 243.046 537.118 243.802 546.188 C 245.491 546.438 247.18 546.687 248.919 546.944 C 248.919 547.443 248.919 547.942 248.919 548.456 C 246.386 547.957 243.854 547.458 241.244 546.944 C 241.184 540.76 241.139 534.577 241.111 528.392 C 241.098 525.521 241.079 522.65 241.051 519.779 C 241.023 517.009 241.008 514.24 241.001 511.47 C 240.996 510.412 240.987 509.354 240.973 508.296 C 240.955 506.818 240.954 505.338 240.953 503.859 C 240.948 503.017 240.942 502.174 240.936 501.305 C 241.037 500.649 241.139 499.992 241.244 499.316 C 243.802 497.804 243.802 497.804 245.668 498.087 Z" fill="#001925" style="" transform="matrix(0.9999999999999999, 0, 0, 0.9999999999999999, 0, 0)"/>
  <path d="M 281.327 478.903 C 281.89 479.153 282.453 479.402 283.033 479.659 C 282.188 479.909 281.344 480.158 280.474 480.415 C 281.037 481.663 281.6 482.91 282.18 484.196 C 281.336 484.445 280.491 484.694 279.621 484.952 C 279.47 488.39 279.624 490.908 281.327 494.024 C 281.89 494.024 282.453 494.024 283.033 494.024 C 283.314 493.525 283.596 493.026 283.886 492.512 C 284.203 493.124 284.52 493.737 284.847 494.368 C 286.245 496.483 286.245 496.483 288.771 496.79 C 289.686 496.802 290.602 496.814 291.545 496.826 C 293.033 496.859 293.033 496.859 294.551 496.893 C 295.588 496.897 296.624 496.902 297.692 496.906 C 299.261 496.934 299.261 496.934 300.862 496.964 C 303.448 497.008 306.033 497.036 308.618 497.048 C 308.618 497.297 308.618 497.547 308.618 497.804 C 305.053 497.878 301.488 497.934 297.922 497.97 C 296.71 497.985 295.498 498.006 294.286 498.032 C 292.54 498.069 290.794 498.086 289.046 498.099 C 287.472 498.123 287.472 498.123 285.866 498.147 C 282.516 497.741 281.146 496.866 278.769 494.78 C 277.515 492.556 277.771 490.544 277.756 488.07 C 277.744 487.136 277.732 486.203 277.719 485.241 C 277.902 482.869 278.12 481.593 279.621 479.659 C 280.184 479.41 280.747 479.16 281.327 478.903 Z" fill="#31C7E5" style="" transform="matrix(0.9999999999999999, 0, 0, 0.9999999999999999, 0, 0)"/>
  <path d="M 41.675 257.393 C 42.519 257.393 43.364 257.393 44.234 257.393 C 44.796 261.634 45.359 265.876 45.939 270.245 C 44.813 270.495 43.688 270.744 42.528 271.001 C 39.059 263.442 39.059 263.442 40.822 259.047 C 41.104 258.501 41.385 257.956 41.675 257.393 Z" fill="#1FD5FC" style="" transform="matrix(0.9999999999999999, 0, 0, 0.9999999999999999, 0, 0)"/>
  <path d="M 242.096 478.147 C 245.679 477.836 247.45 477.734 250.374 479.698 C 252.849 482.519 252.853 484.062 252.756 487.598 C 252.748 488.572 252.739 489.547 252.73 490.551 C 252.314 493.382 251.826 494.864 249.771 497.048 C 247.843 497.748 247.843 497.748 245.774 498.04 C 245.085 498.146 244.395 498.253 243.685 498.362 C 243.161 498.427 242.636 498.492 242.096 498.56 C 242.096 498.061 242.096 497.562 242.096 497.048 C 243.784 497.048 245.473 497.048 247.213 497.048 C 247.213 496.549 247.213 496.05 247.213 495.536 C 248.057 495.536 248.902 495.536 249.771 495.536 C 249.754 494.928 249.736 494.319 249.719 493.693 C 249.771 491.756 249.771 491.756 250.624 491 C 250.908 487.422 250.786 483.898 249.771 480.415 C 245.972 479.667 245.972 479.667 242.096 478.903 C 242.096 478.654 242.096 478.404 242.096 478.147 Z" fill="#31BAD6" style="" transform="matrix(0.9999999999999999, 0, 0, 0.9999999999999999, 0, 0)"/>
  <path d="M 490.063 477.958 C 490.658 477.972 491.253 477.986 491.866 478 C 493.327 478.036 494.787 478.089 496.246 478.147 C 496.246 478.397 496.246 478.646 496.246 478.903 C 495.486 478.995 494.725 479.086 493.941 479.181 C 492.943 479.308 491.945 479.434 490.916 479.565 C 489.927 479.687 488.937 479.811 487.918 479.937 C 484.955 480.338 484.955 480.338 481.748 481.927 C 481.466 487.167 481.185 492.406 480.895 497.804 C 480.614 497.804 480.332 497.804 480.042 497.804 C 479.943 495.095 479.883 492.386 479.829 489.677 C 479.801 488.908 479.772 488.14 479.743 487.35 C 479.66 481.767 479.66 481.767 481.349 479.14 C 484.253 477.771 486.867 477.819 490.063 477.958 Z" fill="#31BCD7" style="" transform="matrix(0.9999999999999999, 0, 0, 0.9999999999999999, 0, 0)"/>
  <path d="M 356.378 491.756 C 357.223 492.255 358.067 492.754 358.937 493.268 C 358.724 494.685 358.724 494.685 358.084 496.292 C 355.121 498.095 352.26 498.037 348.743 498.117 C 348.18 498.131 347.617 498.146 347.037 498.161 C 345.247 498.206 343.457 498.241 341.667 498.276 C 340.449 498.305 339.232 498.334 338.015 498.365 C 335.04 498.437 332.063 498.501 329.087 498.56 C 329.087 498.061 329.087 497.562 329.087 497.048 C 330.003 497.019 330.003 497.019 330.936 496.99 C 333.732 496.902 336.526 496.81 339.321 496.717 C 340.281 496.687 341.241 496.658 342.23 496.627 C 347.28 496.456 352.23 496.182 357.231 495.536 C 356.809 493.665 356.809 493.665 356.378 491.756 Z" fill="#33C1DD" style="" transform="matrix(0.9999999999999999, 0, 0, 0.9999999999999999, 0, 0)"/>
  <path d="M 498.805 480.415 C 499.368 480.665 499.931 480.914 500.511 481.171 C 500.792 491.4 501.074 501.629 501.363 512.168 C 500.238 511.918 499.112 511.669 497.952 511.412 C 498.234 510.663 498.515 509.915 498.805 509.144 C 498.878 506.969 498.904 504.813 498.889 502.638 C 498.888 502.003 498.886 501.369 498.885 500.715 C 498.88 498.69 498.87 496.664 498.859 494.638 C 498.854 493.264 498.85 491.89 498.847 490.516 C 498.837 487.15 498.823 483.783 498.805 480.415 Z" fill="#32CCED" style="" transform="matrix(0.9999999999999999, 0, 0, 0.9999999999999999, 0, 0)"/>
  <path d="M 58.732 250.589 C 58.732 251.088 58.732 251.587 58.732 252.101 C 57.728 252.048 57.728 252.048 56.703 251.995 C 50.85 251.817 47.23 251.933 42.528 255.125 C 40.905 256.702 40.905 256.702 39.969 258.149 C 40.251 256.403 40.532 254.656 40.822 252.857 C 41.666 252.857 42.511 252.857 43.381 252.857 C 43.662 252.358 43.944 251.859 44.234 251.345 C 49.376 249.798 53.412 249.781 58.732 250.589 Z" fill="#011A26" style="" transform="matrix(0.9999999999999999, 0, 0, 0.9999999999999999, 0, 0)"/>
  <path d="M 59.585 264.953 C 60.172 266.323 60.172 266.323 60.438 267.977 C 59.558 269.182 59.558 269.182 57.879 270.245 C 55.018 270.632 55.018 270.632 51.75 270.765 C 50.122 270.84 50.122 270.84 48.461 270.916 C 47.63 270.944 46.797 270.972 45.939 271.001 C 45.658 271.75 45.376 272.498 45.086 273.269 C 44.242 272.521 43.398 271.772 42.528 271.001 C 43.372 270.752 44.216 270.502 45.086 270.245 C 45.086 268.998 45.086 267.75 45.086 266.465 C 45.492 266.839 45.896 267.214 46.313 267.599 C 49.473 269.239 52.585 269.185 56.174 268.733 C 58.944 267.431 58.944 267.431 59.585 264.953 Z" fill="#28B5D3" style="" transform="matrix(0.9999999999999999, 0, 0, 0.9999999999999999, 0, 0)"/>
  <path d="M 56.174 252.101 C 57.018 252.6 57.862 253.099 58.732 253.613 C 58.732 254.112 58.732 254.611 58.732 255.125 C 58.064 254.985 57.396 254.845 56.707 254.7 C 52.729 254.275 49.045 254.675 45.086 255.125 C 45.086 254.626 45.086 254.127 45.086 253.613 C 48.941 251.905 51.946 251.859 56.174 252.101 Z" fill="#22D5F9" style="" transform="matrix(0.9999999999999999, 0, 0, 0.9999999999999999, 0, 0)"/>
  <path d="M 358.084 496.292 C 357.803 497.04 357.521 497.789 357.231 498.56 C 348.225 498.56 339.219 498.56 329.94 498.56 C 329.94 498.31 329.94 498.061 329.94 497.804 C 330.68 497.785 331.42 497.766 332.184 497.746 C 334.927 497.674 337.67 497.6 340.414 497.522 C 341.602 497.489 342.789 497.458 343.977 497.428 C 345.683 497.384 347.39 497.336 349.096 497.287 C 350.123 497.259 351.15 497.231 352.209 497.203 C 354.452 497.061 355.911 496.292 358.084 496.292 Z" fill="#001620" style="" transform="matrix(0.9999999999999999, 0, 0, 0.9999999999999999, 0, 0)"/>
  <path d="M 452.751 481.171 C 453.314 481.171 453.877 481.171 454.457 481.171 C 454.531 483.644 454.577 486.117 454.617 488.59 C 454.649 489.643 454.649 489.643 454.682 490.718 C 454.69 491.393 454.698 492.067 454.706 492.763 C 454.72 493.384 454.734 494.005 454.747 494.646 C 454.389 496.673 453.746 497.356 451.898 498.56 C 450.033 498.324 450.033 498.324 448.487 497.804 C 449.185 497.318 449.883 496.831 450.602 496.33 C 453.477 493.244 453.255 491.22 453.018 487.362 C 452.998 486.765 452.979 486.169 452.96 485.556 C 452.909 484.093 452.833 482.632 452.751 481.171 Z" fill="#011B26" style="" transform="matrix(0.9999999999999999, 0, 0, 0.9999999999999999, 0, 0)"/>
  <path d="M 24.618 405.571 C 24.618 407.083 24.618 407.083 22.486 409.067 C 21.782 409.66 21.079 410.253 20.354 410.863 C 19.509 410.613 18.665 410.364 17.795 410.107 C 15.529 410.771 15.529 410.771 13.531 411.619 C 19.985 405.571 19.985 405.571 24.618 405.571 Z" fill="#B9E7EB" style="" transform="matrix(0.9999999999999999, 0, 0, 0.9999999999999999, 0, 0)"/>
  <path d="M 43.381 260.417 C 43.662 260.417 43.944 260.417 44.234 260.417 C 44.796 263.66 45.359 266.904 45.939 270.245 C 44.813 270.495 43.688 270.744 42.528 271.001 C 42.202 269.749 41.919 268.488 41.675 267.221 C 41.956 266.972 42.238 266.722 42.528 266.465 C 42.725 265.447 42.879 264.421 43.008 263.394 C 43.131 262.412 43.254 261.429 43.381 260.417 Z" fill="#27D2F6" style="" transform="matrix(0.9999999999999999, 0, 0, 0.9999999999999999, 0, 0)"/>
  <path d="M 49.351 495.536 C 50.204 497.804 50.204 497.804 49.404 499.458 C 48.956 500.136 48.956 500.136 48.498 500.828 C 47.935 500.828 47.372 500.828 46.792 500.828 C 46.229 503.073 45.666 505.318 45.086 507.632 C 44.524 507.632 43.961 507.632 43.381 507.632 C 43.623 502.586 46.006 499.534 49.351 495.536 Z" fill="#B5DDE1" style="" transform="matrix(0.9999999999999999, 0, 0, 0.9999999999999999, 0, 0)"/>
  <path d="M 281.327 478.903 C 281.89 479.153 282.453 479.402 283.033 479.659 C 282.188 479.909 281.344 480.158 280.474 480.415 C 281.037 481.663 281.6 482.91 282.18 484.196 C 281.336 484.445 280.491 484.694 279.621 484.952 C 279.34 487.696 279.058 490.44 278.769 493.268 C 278.487 493.268 278.206 493.268 277.916 493.268 C 277.87 491.567 277.837 489.866 277.809 488.165 C 277.789 487.217 277.77 486.27 277.749 485.294 C 277.904 482.88 278.089 481.618 279.621 479.659 C 280.184 479.41 280.747 479.16 281.327 478.903 Z" fill="#2AB4CE" style="" transform="matrix(0.9999999999999999, 0, 0, 0.9999999999999999, 0, 0)"/>
  <path d="M 35.705 350.382 C 29.208 354.263 29.208 354.263 24.938 354.209 C 23.892 354.199 23.892 354.199 22.826 354.189 C 22.024 354.176 22.024 354.176 21.206 354.162 C 23.786 352.638 26.009 351.87 28.936 350.996 C 29.842 350.721 30.75 350.445 31.685 350.161 C 33.999 349.626 33.999 349.626 35.705 350.382 Z" fill="#2FB7D5" style="" transform="matrix(0.9999999999999999, 0, 0, 0.9999999999999999, 0, 0)"/>
  <path d="M 54.468 270.245 C 54.468 270.744 54.468 271.243 54.468 271.757 C 53.061 271.757 51.653 271.757 50.204 271.757 C 50.204 272.256 50.204 272.755 50.204 273.269 C 49.078 273.519 47.952 273.768 46.792 274.025 C 46.511 273.027 46.229 272.029 45.939 271.001 C 48.902 270.126 51.364 270.193 54.468 270.245 Z" fill="#25D3F7" style="" transform="matrix(0.9999999999999999, 0, 0, 0.9999999999999999, 0, 0)"/>
  <path d="M 252.33 481.927 C 252.611 481.927 252.893 481.927 253.183 481.927 C 253.229 484.165 253.263 486.4 253.289 488.637 C 253.312 489.592 253.312 489.592 253.333 490.566 C 253.339 491.174 253.344 491.784 253.35 492.411 C 253.363 493.255 253.363 493.255 253.376 494.115 C 253.183 495.536 253.183 495.536 251.477 497.048 C 251.196 496.299 250.914 495.551 250.624 494.78 C 250.906 494.281 251.187 493.782 251.477 493.268 C 251.675 491.343 251.835 489.432 251.957 487.503 C 251.994 486.969 252.031 486.435 252.069 485.884 C 252.159 484.566 252.246 483.247 252.33 481.927 Z" fill="#01141B" style="" transform="matrix(0.9999999999999999, 0, 0, 0.9999999999999999, 0, 0)"/>
  <path d="M 74.083 492.512 C 78.987 495.252 78.987 495.252 80.906 497.804 C 78.936 497.554 76.966 497.305 74.936 497.048 C 74.655 495.551 74.373 494.054 74.083 492.512 Z" fill="#B7E1E3" style="" transform="matrix(0.9999999999999999, 0, 0, 0.9999999999999999, 0, 0)"/>
  <path d="M 11.825 411.619 C 11.825 413.887 11.825 413.887 10.333 415.588 C 9.383 416.243 9.383 416.243 8.414 416.911 C 7.288 416.661 6.162 416.412 5.002 416.155 C 7.254 414.658 9.505 413.161 11.825 411.619 Z" fill="#B0D7DC" style="" transform="matrix(0.9999999999999999, 0, 0, 0.9999999999999999, 0, 0)"/>
  <path d="M 46.792 256.637 C 47.355 256.637 47.918 256.637 48.498 256.637 C 48.498 257.386 48.498 258.134 48.498 258.905 C 47.654 259.279 47.654 259.279 46.792 259.661 C 46.17 261.411 45.597 263.175 45.086 264.953 C 44.805 264.953 44.524 264.953 44.234 264.953 C 43.959 261.456 44.367 259.45 46.792 256.637 Z" fill="#083544" style="" transform="matrix(0.9999999999999999, 0, 0, 0.9999999999999999, 0, 0)"/>
  <path d="M 63.849 259.661 C 64.131 259.661 64.412 259.661 64.702 259.661 C 64.748 261.141 64.781 262.622 64.809 264.103 C 64.829 264.928 64.849 265.752 64.869 266.601 C 64.702 268.733 64.702 268.733 62.996 270.245 C 62.517 268.78 62.517 268.78 62.143 267.221 C 62.425 266.972 62.706 266.722 62.996 266.465 C 63.194 265.32 63.349 264.169 63.477 263.016 C 63.548 262.391 63.619 261.767 63.693 261.123 C 63.744 260.641 63.796 260.158 63.849 259.661 Z" fill="#2FCCEE" style="" transform="matrix(0.9999999999999999, 0, 0, 0.9999999999999999, 0, 0)"/>
  <path d="M 2.444 433.543 C 3.288 433.792 4.132 434.042 5.002 434.299 C 3.595 435.796 2.188 437.293 0.738 438.835 C 0.152 437.465 0.152 437.465 -0.115 435.811 C 1.112 434.488 1.112 434.488 2.444 433.543 Z" fill="#B8DFE3" style="" transform="matrix(0.9999999999999999, 0, 0, 0.9999999999999999, 0, 0)"/>
  <path d="M 21.206 353.406 C 18.97 355.035 17.246 355.977 14.384 356.43 C 14.102 355.931 13.821 355.432 13.531 354.918 C 16.461 353.187 17.783 353.272 21.206 353.406 Z" fill="#011824" style="" transform="matrix(0.9999999999999999, 0, 0, 0.9999999999999999, 0, 0)"/>
</svg>